<?xml version="1.0" encoding="utf-8" ?><svg xmlns="http://www.w3.org/2000/svg" xmlns:xlink="http://www.w3.org/1999/xlink" width="637" height="676" viewBox="0 0 637 676"><path fill="#001A2B" d="M98.2521 226.73C92.8114 218.644 88.1038 210.985 84.2764 201.642C69.8928 166.528 71.1959 130.299 77.7824 93.0311C83.9716 58.0108 107.17 -2.01617 152.601 4.19583C159.454 5.13281 166.561 13.1774 171.843 17.2874C196.709 38.1012 221.934 58.5076 246.833 79.2855C252.523 84.0334 259.031 89.4334 265.252 93.3644C267.798 88.3089 267.47 79.796 268.152 73.838C282.292 72.8034 294.817 79.4264 306.506 86.7744C310.051 89.0029 313.053 91.9242 316.847 93.587C319.553 91.898 322.135 90.0463 324.691 88.1386C336.222 79.5321 350.683 72.8499 365.353 73.781C365.817 77.7742 366.715 89.3805 368.286 92.0831L368.873 92.3544C372.99 90.428 384.787 80.412 388.937 77.155C411.315 59.5365 433.421 41.5755 455.248 23.2784C460.627 18.7847 473.387 6.91361 478.757 5.21558C506.3 -3.49263 531.883 25.8956 541.686 48.4754C547.28 61.3593 550.316 70.9897 553.296 84.5452C561.868 121.888 563.861 162.892 550.411 199.343C545.728 212.036 542.201 216.169 535.067 226.804C536.81 229.212 539.354 231.375 541.543 233.433C553.181 244.371 564.826 255.272 575.612 267.065C576.602 268.147 577.558 269.619 578.382 270.84C576.656 272.641 575.135 273.528 572.89 274.613C579.962 284.628 601.743 294.138 612.692 300.459C616.376 302.586 621.244 304.105 625.085 306.456C617.434 327.511 590.043 340.573 568.92 342.961C568.271 348.158 569.984 352.703 571.552 357.708C577.448 376.608 586.724 394.281 598.929 409.87C605.284 418.048 612.135 424.649 619.634 431.799C623.779 435.751 627.801 438.621 631.157 443.236C622.453 454.635 601.434 463.383 587.528 466.641C583.169 467.663 570.789 469.068 568.392 471.448C570.279 472.851 570.877 473.934 571.9 476.054C573.445 478.507 575.809 482.095 576.995 484.632C583.412 498.355 583.682 512.575 581.459 527.2C580.326 537.031 577.751 544.82 573.407 553.595C572.21 553.737 571.139 553.869 569.951 554.073C555.75 542.453 539.411 533.235 521.02 530.614C519.409 550.887 510.573 570.995 495.492 585.013C494.392 586.036 493.641 587.672 492.263 588.211C491.129 587.69 491.934 587.764 491.219 586.789L490.798 587.141L491.417 587.207C490.163 587.703 489.819 588.544 489.505 589.911C489.06 588.094 492.028 584.331 492.992 582.264C495.359 577.188 496.838 572.849 497.966 567.429C501.053 552.603 498.178 543.822 489.08 532.306C487.724 535.818 487.706 536.623 486.757 540.089C482.424 564.514 472.374 582.145 454.714 599.583C433.401 620.629 409.399 630.205 380.836 636.971C375.449 638.215 370.022 639.091 364.667 640.269C362.555 640.776 361.089 641.573 359.479 643.003C348.008 653.287 334.047 665.14 319.829 671.325C311.622 674.895 288.427 655.405 281.94 650.098C277.948 646.832 274.606 642.551 269.882 640.074L269.434 639.841C263.665 639.322 256.167 637.657 250.47 636.472C231.856 632.091 213.109 625.385 197.087 614.702C177.248 601.475 160.599 583.212 151.793 560.829C149.534 555.085 147.161 545.575 145.962 539.447C145.45 537.791 145.082 535.227 144.773 533.436C143.041 535.217 141.233 536.485 139.785 538.56C128.652 554.524 135.555 572.377 142.006 587.828L140.776 589.602C139.104 587.279 136.347 584.925 134.387 582.706C124.095 571.061 116.736 557.476 113.191 542.293C112.551 539.552 111.377 533.06 109.797 530.745C109.009 529.59 103.053 531.552 101.554 532.046C87.6462 536.626 70.7345 545.307 60.0394 555.373C54.1632 549.482 50.8042 534.699 49.4186 526.409C46.9463 510.88 47.7993 498.598 54.9813 484.167C56.781 480.551 59.3393 477.137 61.4611 473.662C61.9852 472.628 62.4541 472.275 63.2743 471.475C61.637 469.206 53.5559 468.448 50.6029 467.869C44.4836 466.676 38.4783 464.959 32.6534 462.736C19.8111 457.74 12.0546 453.089 1.98771 443.49C5.02332 439.604 8.94326 436.095 12.5177 432.678C15.0995 430.21 17.6078 427.565 20.1539 425.133C40.7223 405.494 54.814 381.203 63.0379 354.067C63.8405 351.419 64.8671 348.848 64.7177 346.087C64.6857 345.496 64.2696 344.141 63.6106 343.872C41.483 337.193 18.1361 330.547 7.85389 306.503C11.5762 303.477 16.3766 301.812 20.7384 299.789C33.9833 293.647 46.312 286.299 58.7594 278.701C59.1926 277.321 59.5413 276.083 60.1415 274.762C58.4222 273.644 56.4788 272.441 54.8782 271.195C61.5984 260.681 77.812 246.963 87.0738 237.88C91.749 233.295 94.0919 232.75 98.2521 226.73Z"/><path fill="#4A6B7D" d="M63.2743 471.475C66.1227 469.873 74.523 469.29 78.2137 468.297C83.7438 466.81 88.7942 465.166 94.2317 463.323C86.8509 481.505 75.5508 498.807 70.023 518.537C100.636 517.886 136.825 513.166 163.339 496.429C163.575 534.132 178.259 572.089 209.447 595.074C221.488 603.947 234.873 608.761 249.398 611.918C254.887 621.439 261.343 631.671 269.591 639.131L269.676 639.656L269.434 639.841C263.665 639.322 256.167 637.657 250.47 636.472C231.856 632.091 213.109 625.385 197.087 614.702C177.248 601.475 160.599 583.212 151.793 560.829C149.534 555.085 147.161 545.575 145.962 539.447C145.45 537.791 145.082 535.227 144.773 533.436C143.041 535.217 141.233 536.485 139.785 538.56C128.652 554.524 135.555 572.377 142.006 587.828L140.776 589.602C139.104 587.279 136.347 584.925 134.387 582.706C124.095 571.061 116.736 557.476 113.191 542.293C112.551 539.552 111.377 533.06 109.797 530.745C109.009 529.59 103.053 531.552 101.554 532.046C87.6462 536.626 70.7345 545.307 60.0394 555.373C54.1632 549.482 50.8042 534.699 49.4186 526.409C46.9463 510.88 47.7993 498.598 54.9813 484.167C56.781 480.551 59.3393 477.137 61.4611 473.662C61.9852 472.628 62.4541 472.275 63.2743 471.475Z"/><path fill="#94B0BB" d="M143.891 522.211C146.483 521.766 149.371 521.202 151.965 520.963C153.859 527.99 155.764 534.588 158.649 541.431C175.071 580.381 208.315 609.284 243.62 630.96C246.216 632.554 250.113 633.972 252.314 635.704L252.396 636.198C251.534 636.571 251.451 636.463 250.47 636.472C231.856 632.091 213.109 625.385 197.087 614.702C177.248 601.475 160.599 583.212 151.793 560.829C149.534 555.085 147.161 545.575 145.962 539.447C146.131 536.187 144.877 525.435 143.891 522.211Z"/><path fill="#94B0BB" d="M61.4611 473.662C64.4448 474.703 66.4142 475.988 69.0656 477.71L68.8786 478.145C67.3018 481.765 64.9775 485.342 63.1443 488.87C59.5818 495.724 56.2259 502.686 54.0689 510.121C52.683 514.821 51.7011 519.631 51.1339 524.498C51.0119 525.531 51.0274 527.312 50.471 527.923C49.7992 527.289 49.8389 527.252 49.4186 526.409C46.9463 510.88 47.7993 498.598 54.9813 484.167C56.781 480.551 59.3393 477.137 61.4611 473.662Z"/><path fill="#4A6B7D" d="M537.795 463.54C544.118 466.174 550.741 467.981 557.448 469.355C560.946 470.071 564.997 470.437 568.392 471.448C570.279 472.851 570.877 473.934 571.9 476.054C573.445 478.507 575.809 482.095 576.995 484.632C583.412 498.355 583.682 512.575 581.459 527.2C580.326 537.031 577.751 544.82 573.407 553.595C572.21 553.737 571.139 553.869 569.951 554.073C555.75 542.453 539.411 533.235 521.02 530.614C519.409 550.887 510.573 570.995 495.492 585.013C494.392 586.036 493.641 587.672 492.263 588.211C491.129 587.69 491.934 587.764 491.219 586.789L490.798 587.141L491.417 587.207C490.163 587.703 489.819 588.544 489.505 589.911C489.06 588.094 492.028 584.331 492.992 582.264C495.359 577.188 496.838 572.849 497.966 567.429C501.053 552.603 498.178 543.822 489.08 532.306C487.724 535.818 487.706 536.623 486.757 540.089C482.424 564.514 472.374 582.145 454.714 599.583C433.401 620.629 409.399 630.205 380.836 636.971C375.449 638.215 370.022 639.091 364.667 640.269L363.691 640.068L363.501 639.614C372.542 631.702 378.211 621.911 384.38 611.881C388.007 610.604 392.182 609.569 395.931 608.476C441.651 595.151 470.853 542.739 469.336 496.956C497.854 513.523 528.768 517.395 561.081 518.426C557.66 506.478 554.147 497.689 548.664 486.353C545.302 479.4 540.395 470.613 537.795 463.54Z"/><path fill="#94B0BB" d="M480.025 520.92C482.148 521.26 487.42 521.867 488.927 522.994C487.707 527.048 486.463 535.759 486.757 540.089C482.424 564.514 472.374 582.145 454.714 599.583C433.401 620.629 409.399 630.205 380.836 636.971C380.329 636.681 380.502 636.789 380.119 636.303C381.098 634.631 386.223 633.147 388.094 631.995C430.369 605.953 468.04 571.118 480.025 520.92Z"/><path fill="#94B0BB" d="M570.288 474.458C570.888 475.097 571.223 475.484 571.9 476.054C573.445 478.507 575.809 482.095 576.995 484.632C583.412 498.355 583.682 512.575 581.459 527.2L581.031 527.212C579.873 526.607 579.699 524.004 579.63 522.698C578.731 505.786 570.589 494.112 563.787 479.539C564.11 478.452 568.967 474.723 570.288 474.458Z"/><path fill="#7D9AA8" d="M563.787 479.539L563.251 478.089C563.799 476.329 568.37 472.402 570.288 474.458C568.967 474.723 564.11 478.452 563.787 479.539Z"/><path fill="#94B0BB" d="M209.218 90.2267C216.226 96.2015 227.738 103.931 235.613 109.999C237.955 111.395 242.918 115.368 245.267 117.203C262.341 130.534 279.271 148.341 285.096 169.73C285.365 167.842 285.708 165.784 286.102 163.92C289.749 146.649 291.357 130.702 290.819 113.118C293.68 115.707 296.993 118.2 299.7 120.952C307.038 128.412 313.986 139.851 316.522 150.028C321.489 134.411 329.993 123.132 342.731 113.008C342.184 128 342.552 142.627 345.717 157.321C346.577 161.311 347.776 165.753 348.061 169.783C354.761 147.592 367.408 134.134 384.745 119.501C388.312 116.49 394.453 111.271 398.404 109.018C406.948 102.23 415.259 96.9789 424.125 90.7266C419.229 100.944 414.91 108.73 408.142 117.922C403.066 124.817 396.822 132.213 392.213 139.278C388.605 145.271 381.075 158.634 380.671 165.407L380.88 165.904C408.404 156.003 440.041 163.707 458.304 186.905C451.483 184.961 445.219 183.301 438.107 182.615C422.182 182.107 400.048 184.929 386.983 194.522L386.994 194.935L388.158 195.28C394.17 194.232 401.433 194.6 407.503 195.265C436.125 198.401 463.26 213.671 486.529 229.759C498.465 238.012 509.936 247.347 521.762 255.732C512.448 257.927 504.18 259.259 494.784 256.58C492.515 256.456 490.075 256.367 487.829 256.151C513.104 270.577 536.98 284.269 558.281 304.433C560.712 306.735 564.229 309.034 566.434 311.298C568.524 312.626 572.303 314.503 574.596 315.736C556.259 321.705 532.56 320.581 514.411 314.786C503.453 311.286 493.106 307.482 481.461 306.885C483.669 304.493 484.327 303.877 487.256 302.565C485.261 301.412 473.449 302.664 470.832 303.215C471.386 300.066 477.053 287.446 474.962 285.327C472.329 283.925 459.58 282.452 456.212 282.489L456.494 281.889C455.794 280.653 452.369 278.268 451.116 277.266C427.923 258.723 399.244 247.202 371.097 263.268C356.916 271.363 347.7 285.413 343.397 301.067C336.042 335.138 339.894 378.097 347.741 411.969C349.561 419.826 352.207 427.635 354.485 435.285C355.171 437.589 357.776 445.368 357.987 447.27C348.033 436.335 336.03 433 321.509 432.205C307.317 431.428 289.583 433.643 278.678 443.546C277.406 444.721 276.171 445.935 274.974 447.186C275.095 444.543 278.061 435.506 278.947 432.595C281.035 425.918 282.977 419.197 284.77 412.435C292.453 382.919 295.317 345.366 292.388 314.833C290.609 296.273 283.284 280.057 268.751 268.407C240.247 245.556 208.267 256.465 182.408 276.342C180.613 277.722 176.403 280.471 175.133 282.119L176.955 282.559C172.864 282.38 161.359 283.273 157.653 284.881C157.437 285.513 157.441 285.255 157.469 285.634C156.714 289.478 160.116 299.072 161.319 303.155C157.139 302.19 150.215 301.481 145.882 301.799L145.602 302.221C147.677 303.582 149.538 305.32 151.403 306.966C136.886 308.356 131.93 310.807 118.376 314.944C96.9785 321.475 79.0716 320.696 57.677 315.845C60.1654 314.179 62.3334 312.844 64.9213 311.334C68.9561 307.99 73.4669 304.796 77.327 301.346C91.812 288.399 107.005 277.462 123.862 267.767C131.102 263.602 137.298 259.809 145.122 256.534C142.679 256.391 140.232 256.299 137.785 256.259C126.421 259.109 121.688 257.628 110.598 255.871C139.371 232.399 173.595 207.505 209.938 197.975C220.235 195.275 237.79 193.124 247.799 195.797L247.684 195.321C246.22 194.042 242.073 191.855 240.172 190.924C224.891 183.449 211.655 182.465 195.306 182.539C187.308 183.644 181.884 184.448 174.24 187.07C191.255 164.37 225.618 155.663 251.842 165.556C252.265 165.307 252.051 165.495 252.36 164.876C251.22 156.974 244.546 145.251 240.405 138.602C235.447 131.607 229.941 125.134 225.069 118.276C219.101 109.874 213.562 99.5226 209.218 90.2267Z"/><path fill="#001A2B" d="M209.218 90.2267C216.226 96.2015 227.738 103.931 235.613 109.999C237.955 111.395 242.918 115.368 245.267 117.203C262.341 130.534 279.271 148.341 285.096 169.73C285.365 167.842 285.708 165.784 286.102 163.92C289.749 146.649 291.357 130.702 290.819 113.118C293.68 115.707 296.993 118.2 299.7 120.952C307.038 128.412 313.986 139.851 316.522 150.028C321.489 134.411 329.993 123.132 342.731 113.008C342.184 128 342.552 142.627 345.717 157.321C346.577 161.311 347.776 165.753 348.061 169.783C354.761 147.592 367.408 134.134 384.745 119.501C388.312 116.49 394.453 111.271 398.404 109.018C406.948 102.23 415.259 96.9789 424.125 90.7266C419.229 100.944 414.91 108.73 408.142 117.922C403.066 124.817 396.822 132.213 392.213 139.278C388.605 145.271 381.075 158.634 380.671 165.407L380.88 165.904C408.404 156.003 440.041 163.707 458.304 186.905C451.483 184.961 445.219 183.301 438.107 182.615C422.182 182.107 400.048 184.929 386.983 194.522L386.994 194.935L388.158 195.28C374.651 198.122 363.28 204.258 353.594 214.269C350.983 216.968 349.032 220.794 346.061 223.558C340.93 234.245 339.201 239.236 336.904 250.796C336.355 253.671 335.777 257.155 335.416 260.053C332.368 284.504 323.367 306.114 316.061 329.446C315.505 324.351 313.734 320.497 312.323 315.704C309.754 306.969 306.316 297.688 304.075 288.929C301.808 280.066 300.261 270.166 298.561 261.154C297.48 255.424 296.651 249.207 295.128 243.619C293.227 235.39 290.582 230.045 286.92 222.596C283.854 220.23 279.527 213.852 275.512 210.474C269.965 205.372 263.92 201.457 256.796 198.939C254.175 198.013 250.202 197.076 247.799 195.797L247.684 195.321C246.22 194.042 242.073 191.855 240.172 190.924C224.891 183.449 211.655 182.465 195.306 182.539C187.308 183.644 181.884 184.448 174.24 187.07C191.255 164.37 225.618 155.663 251.842 165.556C252.265 165.307 252.051 165.495 252.36 164.876C251.22 156.974 244.546 145.251 240.405 138.602C235.447 131.607 229.941 125.134 225.069 118.276C219.101 109.874 213.562 99.5226 209.218 90.2267Z"/><path fill="#94B0BB" d="M209.218 90.2267C216.226 96.2015 227.738 103.931 235.613 109.999C237.955 111.395 242.918 115.368 245.267 117.203C262.341 130.534 279.271 148.341 285.096 169.73C285.365 167.842 285.708 165.784 286.102 163.92C289.749 146.649 291.357 130.702 290.819 113.118C293.68 115.707 296.993 118.2 299.7 120.952C307.038 128.412 313.986 139.851 316.522 150.028C321.489 134.411 329.993 123.132 342.731 113.008C342.184 128 342.552 142.627 345.717 157.321C346.577 161.311 347.776 165.753 348.061 169.783C354.761 147.592 367.408 134.134 384.745 119.501C388.312 116.49 394.453 111.271 398.404 109.018C406.948 102.23 415.259 96.9789 424.125 90.7266C419.229 100.944 414.91 108.73 408.142 117.922C403.066 124.817 396.822 132.213 392.213 139.278C388.605 145.271 381.075 158.634 380.671 165.407L380.88 165.904C378.038 167.724 374.34 169.84 373.598 173.491C373.334 174.788 373.048 177.232 373.568 178.462C362.563 181.312 353.106 184.616 343.67 191.35C331.137 200.292 318.821 218.455 316.445 233.814C310.217 208.378 296.104 191.067 271.301 181.933C267.626 180.58 263.582 179.566 259.804 178.496C260.601 177.423 260.229 174.06 259.769 172.821C258.341 168.972 255.242 167.35 251.842 165.556C252.265 165.307 252.051 165.495 252.36 164.876C251.22 156.974 244.546 145.251 240.405 138.602C235.447 131.607 229.941 125.134 225.069 118.276C219.101 109.874 213.562 99.5226 209.218 90.2267Z"/><path fill="#CCD8DB" d="M398.404 109.018C406.948 102.23 415.259 96.9789 424.125 90.7266C419.229 100.944 414.91 108.73 408.142 117.922C403.066 124.817 396.822 132.213 392.213 139.278C391.716 138.856 391.195 138.176 390.973 137.584C387.909 129.701 389.983 121.534 394.814 114.865C395.785 113.524 397.94 110.44 398.404 109.018Z"/><path fill="#CCD8DB" d="M209.218 90.2267C216.226 96.2015 227.738 103.931 235.613 109.999C236.005 111.673 237.093 113.434 238 114.888C241.334 120.235 244.237 125.668 243.295 132.189C242.952 134.556 243.285 138.106 240.405 138.602C235.447 131.607 229.941 125.134 225.069 118.276C219.101 109.874 213.562 99.5226 209.218 90.2267Z"/><path fill="#CCD8DB" d="M174.24 187.07C191.255 164.37 225.618 155.663 251.842 165.556C255.242 167.35 258.341 168.972 259.769 172.821C260.229 174.06 260.601 177.423 259.804 178.496C254.875 177.211 250.499 176.779 245.47 176.557C226.824 175.342 213.134 177.168 195.306 182.539C187.308 183.644 181.884 184.448 174.24 187.07Z"/><path fill="#CCD8DB" d="M380.88 165.904C408.404 156.003 440.041 163.707 458.304 186.905C451.483 184.961 445.219 183.301 438.107 182.615C437.036 182.246 437.209 182.11 436.387 181.657C434.354 180.537 430.935 180.157 428.692 179.666C417.029 177.117 405.574 175.714 393.62 176.21C390.608 176.327 386.965 175.968 384.001 176.582C380.675 177.024 376.775 177.543 373.568 178.462C373.048 177.232 373.334 174.788 373.598 173.491C374.34 169.84 378.038 167.724 380.88 165.904Z"/><path fill="#94B0BB" d="M195.306 182.539C213.134 177.168 226.824 175.342 245.47 176.557L245.135 177.104C246.214 178.54 249.714 180.027 251.374 180.939C266.159 189.053 280.669 206.826 286.92 222.596C283.854 220.23 279.527 213.852 275.512 210.474C269.965 205.372 263.92 201.457 256.796 198.939C254.175 198.013 250.202 197.076 247.799 195.797L247.684 195.321C246.22 194.042 242.073 191.855 240.172 190.924C224.891 183.449 211.655 182.465 195.306 182.539Z"/><path fill="#94B0BB" d="M384.001 176.582C386.965 175.968 390.608 176.327 393.62 176.21C405.574 175.714 417.029 177.117 428.692 179.666C430.935 180.157 434.354 180.537 436.387 181.657C437.209 182.11 437.036 182.246 438.107 182.615C422.182 182.107 400.048 184.929 386.983 194.522L386.994 194.935L388.158 195.28C374.651 198.122 363.28 204.258 353.594 214.269C350.983 216.968 349.032 220.794 346.061 223.558C346.268 222.877 346.501 222.203 346.759 221.54C347.801 218.89 350.348 214.409 351.888 211.848C362.052 194.947 373.501 184.408 391.597 176.69C389.164 176.557 386.457 176.597 384.001 176.582Z"/><path fill="#CCD8DB" d="M110.598 255.871C139.371 232.399 173.595 207.505 209.938 197.975C220.235 195.275 237.79 193.124 247.799 195.797C250.202 197.076 254.175 198.013 256.796 198.939C263.92 201.457 269.965 205.372 275.512 210.474C279.527 213.852 283.854 220.23 286.92 222.596C290.582 230.045 293.227 235.39 295.128 243.619C293.866 250.614 294.217 254.145 287.874 258.408C286.299 259.467 284.66 260.655 282.712 260.795C282.01 260.117 282.073 259.73 281.416 259.02C279.487 251.653 277.555 245.22 273.67 238.588C263.82 221.778 248.774 212.721 229.207 213.914C214.966 214.735 193.834 224.065 183.767 234.099C178.586 233.75 141.175 251.971 137.785 256.259C126.421 259.109 121.688 257.628 110.598 255.871Z"/><path fill="#CCD8DB" d="M388.158 195.28C394.17 194.232 401.433 194.6 407.503 195.265C436.125 198.401 463.26 213.671 486.529 229.759C498.465 238.012 509.936 247.347 521.762 255.732C512.448 257.927 504.18 259.259 494.784 256.58C493.842 254.834 488.358 252.001 486.455 250.785C481.363 247.529 452.152 232.783 448.192 233.171C437.875 224.391 423.813 217.174 410.463 214.572C379.078 208.427 357.255 231.708 351.386 260.691L350.983 260.627L350.718 260.215C351.339 257.998 351.624 255.87 352.309 253.552C355.868 241.507 362.592 230.291 372.559 222.518C373.63 221.684 374.301 222.267 375.159 220.648C373.801 220.506 373.131 220.408 371.808 220.083C371.019 219.264 371.201 219.735 371.181 218.649C371.602 217.921 372.198 217.83 373.028 217.501L373.405 217.354C373.674 215.128 373.897 213.341 373.952 211.104L373.301 210.655C370.093 210.534 369.541 210.566 367.825 207.872L367.571 207.466C367.574 206.397 367.619 205.608 367.418 204.547C366.39 204.512 365.407 205.162 364.522 205.758C353.144 213.423 344.309 225.418 340.47 238.592C339.163 243.076 338.178 247.972 337.177 252.528L336.904 250.796C339.201 239.236 340.93 234.245 346.061 223.558C349.032 220.794 350.983 216.968 353.594 214.269C363.28 204.258 374.651 198.122 388.158 195.28Z"/><defs><linearGradient id="gradient_0" gradientUnits="userSpaceOnUse" x1="365.84647" y1="229.00345" x2="402.11575" y2="250.96756"><stop offset="0" stop-color="#001727"/><stop offset="1" stop-color="#18384C"/></linearGradient></defs><path fill="url(#gradient_0)" d="M351.386 260.691C357.255 231.708 379.078 208.427 410.463 214.572C412.616 216.86 414.375 214.625 413.967 218.243C413.308 224.099 412.563 229.982 411.991 235.844C410.224 235.849 407.579 235.775 405.911 236.05C380.367 236.833 364.909 242.86 350.91 264.918L351.386 260.691Z"/><path fill="#001A2B" d="M229.207 213.914C248.774 212.721 263.82 221.778 273.67 238.588C277.555 245.22 279.487 251.653 281.416 259.02L282.521 265.641C275.053 251.987 263.614 242.953 248.578 238.345C245.476 237.394 241.039 236.875 237.753 236.386C235.108 234.949 228.198 235.538 224.568 235.513C223.841 230.54 223.849 225.219 223 220.233C222.762 218.836 221.905 217.155 221.423 215.721C224.035 214.495 226.617 215.502 229.207 213.914Z"/><path fill="#FEFEFD" d="M64.9213 311.334C68.509 311.214 74.5797 309.334 78.2273 308.664C88.0184 306.866 96.9477 303.801 106.006 299.753C113.871 296.239 123.575 296.022 131.899 297.75C136.788 298.765 140.863 300.647 145.602 302.221C147.677 303.582 149.538 305.32 151.403 306.966C136.886 308.356 131.93 310.807 118.376 314.944C96.9785 321.475 79.0716 320.696 57.677 315.845C60.1654 314.179 62.3334 312.844 64.9213 311.334Z"/><path fill="#FEFEFD" d="M487.256 302.565C500.183 297.469 510.932 293.653 524.516 298.958C535.175 303.121 544.781 306.848 556.156 308.723C559.387 309.256 563.375 310.977 566.434 311.298C568.524 312.626 572.303 314.503 574.596 315.736C556.259 321.705 532.56 320.581 514.411 314.786C503.453 311.286 493.106 307.482 481.461 306.885C483.669 304.493 484.327 303.877 487.256 302.565Z"/><defs><linearGradient id="gradient_1" gradientUnits="userSpaceOnUse" x1="224.55821" y1="225.26184" x2="163.21568" y2="246.45103"><stop offset="0" stop-color="#143447"/><stop offset="1" stop-color="#4F6E7E"/></linearGradient></defs><path fill="url(#gradient_1)" d="M183.767 234.099C193.834 224.065 214.966 214.735 229.207 213.914C226.617 215.502 224.035 214.495 221.423 215.721C221.905 217.155 222.762 218.836 223 220.233C223.849 225.219 223.841 230.54 224.568 235.513C228.198 235.538 235.108 234.949 237.753 236.386C220.246 235.513 205.238 237.599 189.008 244.471C180.221 248.191 173.604 252.766 165.73 257.992C167.79 255.061 169.711 251.465 171.689 248.383C175.412 242.582 178.86 238.794 183.767 234.099Z"/><defs><linearGradient id="gradient_2" gradientUnits="userSpaceOnUse" x1="410.4437" y1="227.12059" x2="469.91348" y2="245.86562"><stop offset="0" stop-color="#18374A"/><stop offset="1" stop-color="#587988"/></linearGradient></defs><path fill="url(#gradient_2)" d="M410.463 214.572C423.813 217.174 437.875 224.391 448.192 233.171C455.003 239.141 460.404 246.007 465.055 253.762C465.877 255.133 467.128 256.751 467.177 258.314C465.102 256.953 462.661 255.04 460.633 253.537C450.274 245.907 432.578 239.341 419.794 237.33C415.209 236.608 410.545 236.398 405.911 236.05C407.579 235.775 410.224 235.849 411.991 235.844C412.563 229.982 413.308 224.099 413.967 218.243C414.375 214.625 412.616 216.86 410.463 214.572Z"/><path fill="#CCD8DB" d="M460.633 253.537C462.661 255.04 465.102 256.953 467.177 258.314C471.921 264.376 484.515 274.559 490.593 280.251C491.443 281.251 492.1 282.014 492.848 283.087C491.851 283.212 490.851 282.677 489.826 282.295C483.269 277.2 475.263 272.345 469.279 266.622C468.831 266.193 457.816 254.21 457.9 254.378C458.813 253.64 459.29 253.783 460.633 253.537Z"/><path fill="#91DAEB" d="M490.593 280.251C494.486 283.166 498.975 286.639 502.039 290.389C499.191 288.512 492.125 284.147 489.826 282.295C490.851 282.677 491.851 283.212 492.848 283.087C492.1 282.014 491.443 281.251 490.593 280.251Z"/><path fill="#FEFEFD" d="M176.955 282.559L175.133 282.119C176.403 280.471 180.613 277.722 182.408 276.342C208.267 256.465 240.247 245.556 268.751 268.407C283.284 280.057 290.609 296.273 292.388 314.833C295.317 345.366 292.453 382.919 284.77 412.435C282.977 419.197 281.035 425.918 278.947 432.595C278.061 435.506 275.095 444.543 274.974 447.186C266.748 462.715 272.343 477.101 287.699 484.971C293.981 488.19 304.225 489.243 306.636 496.862C310.537 510.752 295.073 510.212 286.091 509.187C283.781 510.666 281.748 511.611 279.601 513.359C277.407 516.435 273.33 517.245 270.774 519.627C269.993 520.355 271.26 523.486 269.399 524.358L268.33 523.96L268.257 523.678C269.22 522.861 269.671 522.393 269.966 521.135C268.94 520.702 265.958 522.406 265.269 523.227C266.229 523.794 272.852 527.182 273.042 527.541C270.58 527.399 261.014 521.499 259.026 519.78C257.442 518.815 256.199 517.789 254.746 516.65L253.351 515.565C252.072 514.445 251.067 513.406 249.89 512.195C248.512 510.677 247.574 509.448 246.343 507.818C245.74 507.011 245.16 506.186 244.605 505.345C233.362 488.019 234.659 461.111 238.882 441.529C239.379 439.031 239.82 436.522 240.203 434.004C231.983 438.838 223.18 446.119 218.937 454.862C213.402 467.098 215.284 469.198 214.501 480.957C215.135 498.191 224.138 516.667 236.653 528.409C235.625 537.383 235.115 542.718 235.308 551.812C236.086 563.009 237.332 568.636 240.753 579.343C240.117 578.938 239.495 578.511 238.89 578.061C215.836 560.874 203.736 538.35 199.695 510.168C199.465 509.411 199.309 508.976 199.008 508.245C197.446 508.2 185.991 521.758 173.019 515.923C171.302 511.909 171.489 509.05 171.176 504.864C169.832 486.884 178.593 466.928 196.485 460.672C197.065 460.469 197.258 458.603 197.375 458.038C198.314 445.832 199.701 439.579 204.253 428.114C190.474 435.355 177.187 443.743 165.494 454.025C163.878 455.446 158.866 460.054 157.351 460.792C144.431 471.953 122.426 484.888 106.441 490.351C119.364 469.229 121.774 448.941 128.893 426.181C131.802 416.099 136.035 406.967 140.884 397.733C136.883 399.306 132.628 401.787 128.843 403.878C114.061 412.043 98.7985 423.869 83.1216 430.044C80.9079 430.772 78.7054 431.719 76.4807 432.484C66.8704 435.787 55.9467 438.112 45.7641 438.457C51.1967 433.599 57.373 428.186 62.186 422.753C69.7475 414.218 76.8117 405.771 84.5497 397.348C85.5036 394.021 89.5653 385.073 91.206 382.13C94.6233 375.999 106.653 373.768 113.042 373.249C115.005 373.09 119.687 373.837 121.389 373.187C113.23 367.351 106.503 360.056 104.207 350.016C103.896 348.652 103.318 346.649 103.658 345.308C104.567 344.41 104.399 344.68 105.865 344.344C111.509 342.213 117.138 340.041 122.75 337.829C145.804 328.614 156.695 324.275 182.323 326.282C171.437 318.571 168.227 314.024 161.319 303.155C160.116 299.072 156.714 289.478 157.469 285.634C157.441 285.255 157.437 285.513 157.653 284.881C161.359 283.273 172.864 282.38 176.955 282.559Z"/><defs><linearGradient id="gradient_3" gradientUnits="userSpaceOnUse" x1="223.0034" y1="407.7746" x2="122.77484" y2="481.1745"><stop offset="0" stop-color="#81A3B0"/><stop offset="1" stop-color="#BACCD1"/></linearGradient></defs><path fill="url(#gradient_3)" d="M121.389 373.187C113.23 367.351 106.503 360.056 104.207 350.016C103.896 348.652 103.318 346.649 103.658 345.308C104.567 344.41 104.399 344.68 105.865 344.344C107.691 346.777 111.908 349.156 114.524 350.746C139.045 365.656 167.714 369.404 195.94 368.375C172.076 381.644 152.591 401.986 144.605 428.678C142.564 435.502 140.945 447.067 141.617 454.05C145.695 444.821 149.294 437.525 156.008 429.729C171.951 411.219 195.268 402.199 219.194 400.087C213.773 412.717 214.699 416.158 214.186 429.128C214.431 433.764 216.705 451.36 218.937 454.862C213.402 467.098 215.284 469.198 214.501 480.957C215.135 498.191 224.138 516.667 236.653 528.409C235.625 537.383 235.115 542.718 235.308 551.812C236.086 563.009 237.332 568.636 240.753 579.343C240.117 578.938 239.495 578.511 238.89 578.061C215.836 560.874 203.736 538.35 199.695 510.168C199.465 509.411 199.309 508.976 199.008 508.245C197.446 508.2 185.991 521.758 173.019 515.923C171.302 511.909 171.489 509.05 171.176 504.864C169.832 486.884 178.593 466.928 196.485 460.672C197.065 460.469 197.258 458.603 197.375 458.038C198.314 445.832 199.701 439.579 204.253 428.114C190.474 435.355 177.187 443.743 165.494 454.025C163.878 455.446 158.866 460.054 157.351 460.792C144.431 471.953 122.426 484.888 106.441 490.351C119.364 469.229 121.774 448.941 128.893 426.181C131.802 416.099 136.035 406.967 140.884 397.733C136.883 399.306 132.628 401.787 128.843 403.878C114.061 412.043 98.7985 423.869 83.1216 430.044C80.9079 430.772 78.7054 431.719 76.4807 432.484C66.8704 435.787 55.9467 438.112 45.7641 438.457C51.1967 433.599 57.373 428.186 62.186 422.753C69.7475 414.218 76.8117 405.771 84.5497 397.348C85.5036 394.021 89.5653 385.073 91.206 382.13C94.6233 375.999 106.653 373.768 113.042 373.249C115.005 373.09 119.687 373.837 121.389 373.187Z"/><path fill="#CCD8DB" d="M121.389 373.187C124.211 374.454 132.791 380.362 135.513 382.301L130.265 382.203L131.783 382.711L131.984 383.29C130.869 384.716 112.561 392.921 109.937 396.712C109.8 396.91 104.499 400.922 103.693 401.556C95.8383 407.741 84.283 419.59 83.1216 430.044C80.9079 430.772 78.7054 431.719 76.4807 432.484C66.8704 435.787 55.9467 438.112 45.7641 438.457C51.1967 433.599 57.373 428.186 62.186 422.753C69.7475 414.218 76.8117 405.771 84.5497 397.348C85.5036 394.021 89.5653 385.073 91.206 382.13C94.6233 375.999 106.653 373.768 113.042 373.249C115.005 373.09 119.687 373.837 121.389 373.187Z"/><path fill="#4A6B7D" d="M121.389 373.187C124.211 374.454 132.791 380.362 135.513 382.301L130.265 382.203C126.759 381.103 122.729 381.281 118.985 381.291C108.188 381.318 98.4384 386.021 90.2732 392.84C88.6691 394.179 86.2739 396.328 84.5497 397.348C85.5036 394.021 89.5653 385.073 91.206 382.13C94.6233 375.999 106.653 373.768 113.042 373.249C115.005 373.09 119.687 373.837 121.389 373.187Z"/><path fill="#3A5B6D" d="M173.019 515.923C171.302 511.909 171.489 509.05 171.176 504.864C169.832 486.884 178.593 466.928 196.485 460.672C197.065 460.469 197.258 458.603 197.375 458.038C197.275 461.64 196.84 485.804 197.983 487.737C198.435 495.223 199.006 502.701 199.695 510.168C199.465 509.411 199.309 508.976 199.008 508.245C197.446 508.2 185.991 521.758 173.019 515.923Z"/><path fill="#FEFEFD" d="M197.983 487.737C199.502 489.107 204.062 505.365 205.529 508.885C209.388 518.14 214.811 527.419 220.981 535.303C223.39 538.38 234.882 550.139 235.308 551.812C236.086 563.009 237.332 568.636 240.753 579.343C240.117 578.938 239.495 578.511 238.89 578.061C215.836 560.874 203.736 538.35 199.695 510.168C199.006 502.701 198.435 495.223 197.983 487.737Z"/><path fill="#3A5B6D" d="M213.751 421.844C213.795 424.192 213.756 426.849 214.186 429.128C214.431 433.764 216.705 451.36 218.937 454.862C213.402 467.098 215.284 469.198 214.501 480.957C214.064 478.868 214.531 476.291 213.845 474.339C212.767 471.272 210.881 468.171 209.587 465.177C206.557 458.171 205.132 448.823 205.53 441.234C205.986 432.522 207.392 427.738 213.751 421.844Z"/><path fill="#CCD8DB" d="M128.893 426.181C129.498 427.507 128.446 430.125 128.036 431.657C126.235 438.401 124.391 445.133 122.503 451.853C121.592 455.08 120.575 458.319 119.793 461.568C119.516 462.719 121.517 461.515 122.319 463.848C123.202 466.42 122.99 468.123 123.173 470.797C123.296 472.595 127.425 472.759 128.808 473.71C129.981 474.516 130.621 477.94 132.467 477.369C141.108 472.337 148.787 466.447 156.749 460.469L157.351 460.792C144.431 471.953 122.426 484.888 106.441 490.351C119.364 469.229 121.774 448.941 128.893 426.181Z"/><path fill="#001A2B" d="M157.469 285.634C157.441 285.255 157.437 285.513 157.653 284.881C161.359 283.273 172.864 282.38 176.955 282.559C185.835 283.101 193.731 285.158 202.819 285.184C210.921 285.207 217.477 283.724 225.227 283.112C238.191 282.088 251.832 286.125 260.585 296.255C274.427 312.275 276.544 334.227 275.355 354.476C274.392 370.885 268.768 393.523 259.1 407.033C258.342 400.491 257.62 393.945 256.934 387.396C255.519 373.45 253.645 348.589 244.013 337.758C232.308 334.351 222.393 332.555 215.652 320.593C212.874 315.664 211.927 310.162 211.118 304.618C191.573 305.101 175.879 303.281 160.796 289.032C159.647 287.939 158.537 286.806 157.469 285.634Z"/><path fill="#91DAEB" d="M241.64 301.785C247.247 301.627 251.935 306.014 252.151 311.62C252.367 317.225 248.029 321.959 242.426 322.232C238.75 322.411 235.262 320.602 233.29 317.495C231.318 314.388 231.167 310.46 232.894 307.211C234.621 303.961 237.961 301.889 241.64 301.785Z"/><defs><linearGradient id="gradient_4" gradientUnits="userSpaceOnUse" x1="272.54184" y1="476.87088" x2="236.95525" y2="481.54294"><stop offset="0" stop-color="#92ABB6"/><stop offset="1" stop-color="#CDD9DC"/></linearGradient></defs><path fill="url(#gradient_4)" d="M246.343 507.818C245.74 507.011 245.16 506.186 244.605 505.345C233.362 488.019 234.659 461.111 238.882 441.529L238.946 441.864C239.937 447.247 240.032 452.924 240.937 458.383C243.808 475.699 249.741 489.929 264.376 500.554C267.721 502.982 274.339 505.591 276.049 506.856C277.809 507.344 280.398 507.986 282.048 508.586C283.077 508.733 285.162 508.964 286.091 509.187C283.781 510.666 281.748 511.611 279.601 513.359C277.407 516.435 273.33 517.245 270.774 519.627C269.993 520.355 271.26 523.486 269.399 524.358L268.33 523.96L268.257 523.678C269.22 522.861 269.671 522.393 269.966 521.135C268.94 520.702 265.958 522.406 265.269 523.227C266.229 523.794 272.852 527.182 273.042 527.541C270.58 527.399 261.014 521.499 259.026 519.78C257.442 518.815 256.199 517.789 254.746 516.65L253.351 515.565C252.072 514.445 251.067 513.406 249.89 512.195C248.512 510.677 247.574 509.448 246.343 507.818Z"/><defs><linearGradient id="gradient_5" gradientUnits="userSpaceOnUse" x1="267.41656" y1="521.7406" x2="264.59882" y2="514.96716"><stop offset="0" stop-color="#284658"/><stop offset="1" stop-color="#517182"/></linearGradient></defs><path fill="url(#gradient_5)" d="M282.048 508.586C283.077 508.733 285.162 508.964 286.091 509.187C283.781 510.666 281.748 511.611 279.601 513.359C277.407 516.435 273.33 517.245 270.774 519.627C269.993 520.355 271.26 523.486 269.399 524.358L268.33 523.96L268.257 523.678C269.22 522.861 269.671 522.393 269.966 521.135C268.94 520.702 265.958 522.406 265.269 523.227C266.229 523.794 272.852 527.182 273.042 527.541C270.58 527.399 261.014 521.499 259.026 519.78C260.501 518.834 259.408 518.729 260.134 516.77C260.819 516.329 265.748 515.289 266.894 515.012C270.251 514.088 271.98 513.434 275.2 512.054C275.96 511.086 280.657 509.181 282.048 508.586Z"/><path fill="#3A5B6D" d="M282.048 508.586C283.077 508.733 285.162 508.964 286.091 509.187C283.781 510.666 281.748 511.611 279.601 513.359C277.58 513.861 275.328 516.825 272.816 516.894C271.412 515.392 271.676 515.628 269.919 515.38C269.893 514.691 274.107 513.828 275.2 512.054C275.96 511.086 280.657 509.181 282.048 508.586Z"/><path fill="#4A6B7D" d="M253.351 515.565C257.197 514.851 255.482 512.993 260.039 513.99C261.845 514.557 262.575 514.633 264.402 514.855L266.894 515.012C265.748 515.289 260.819 516.329 260.134 516.77C259.408 518.729 260.501 518.834 259.026 519.78C257.442 518.815 256.199 517.789 254.746 516.65L253.351 515.565Z"/><path fill="#7D9AA8" d="M253.351 515.565C257.197 514.851 255.482 512.993 260.039 513.99C261.845 514.557 262.575 514.633 264.402 514.855C263.645 514.885 256.044 516.354 254.746 516.65L253.351 515.565Z"/><path fill="#94B0BB" d="M276.049 506.856C277.809 507.344 280.398 507.986 282.048 508.586C280.657 509.181 275.96 511.086 275.2 512.054C271.98 513.434 270.251 514.088 266.894 515.012L264.402 514.855C262.575 514.633 261.845 514.557 260.039 513.99C265.174 513.479 270.088 514.417 274.683 511.505C276.133 510.586 277.59 508.738 276.023 507.269L276.049 506.856Z"/><path fill="#94B0BB" d="M249.89 512.195C251.569 511.744 251.791 511.64 253.243 510.682C254.651 511.467 259.635 513.714 260.039 513.99C255.482 512.993 257.197 514.851 253.351 515.565C252.072 514.445 251.067 513.406 249.89 512.195Z"/><path fill="#91DAEB" d="M246.343 507.818C248.645 507.752 251.411 509.334 253.243 510.682C251.791 511.64 251.569 511.744 249.89 512.195C248.512 510.677 247.574 509.448 246.343 507.818Z"/><path fill="#FEFEFD" d="M357.987 447.27C357.776 445.368 355.171 437.589 354.485 435.285C352.207 427.635 349.561 419.826 347.741 411.969C339.894 378.097 336.042 335.138 343.397 301.067C347.7 285.413 356.916 271.363 371.097 263.268C399.244 247.202 427.923 258.723 451.116 277.266C452.369 278.268 455.794 280.653 456.494 281.889L456.212 282.489C459.58 282.452 472.329 283.925 474.962 285.327C477.053 287.446 471.386 300.066 470.832 303.215C464.99 313.346 460.624 319.8 450.806 326.587C456.447 326.173 460.847 325.782 466.502 325.965C487.827 326.657 505.462 337.511 525.524 344.012C526.371 344.332 527.458 344.707 528.252 345.086C526.778 357.565 520.664 366.679 510.608 374.202C513.13 374.305 515.875 373.225 518.133 373.338C525.035 373.683 534.712 374.896 539.996 379.825C542.413 382.491 547.286 393.947 548.468 397.409C556.46 406.495 564.111 415.909 572.235 424.86C576.624 429.696 581.699 434.099 586.623 438.388C575.216 437.541 562.207 435.383 551.542 431.012C534.307 424.141 521.268 414.882 505.489 405.414C500.892 402.656 495.997 400.175 491.253 397.662C495.346 404.633 500.887 416.485 502.864 424.288C506.702 436.509 509.061 448.459 512.646 460.192C515.787 470.552 520.039 480.542 525.326 489.989C510.422 484.731 494.251 474.725 481.48 465.491C480.592 464.848 476.019 461.375 475.511 460.674C472.822 459.104 464.892 451.888 461.681 449.443C451.344 441.733 440.333 434.971 428.782 429.238C433.921 437.922 435.462 450.344 435.668 460.305C439.307 460.997 445.047 464.852 447.811 467.377C459.64 478.182 463.551 495.731 461.195 511.143C460.986 512.508 460.218 515.073 458.801 515.906C450.987 518.941 440.126 515.339 435.002 508.799C434.785 508.522 433.923 508.824 433.714 508.924C430.327 538.217 418.519 558.861 395.413 577.161C394.616 577.798 393.788 578.393 392.93 578.944C395.639 570.24 398.136 560.621 398.328 551.457C398.725 543.787 397.926 535.817 397.113 528.208C411.179 512.478 418.333 498.716 418.542 477.017C418.345 468.461 417.411 463.502 414.669 455.561C409.109 445.394 401.54 439.79 392.338 433.436C392.765 435.058 393.119 437.836 393.391 439.58C399.022 461.127 400.777 489.471 386.755 508.072C385.687 509.577 384.851 510.657 383.674 512.072C382.527 513.293 381.336 514.631 380.091 515.737L375.152 519.368C372.305 521.346 360.22 528.331 357.127 529.235L356.762 528.669C358.187 528.284 364.49 525.589 364.795 524.324C362.548 520.348 352.347 513.177 348.329 510.277C347.58 509.736 344.516 509.657 343.506 509.615C339.55 509.655 336.082 509.848 332.129 509.034C326.795 507.937 324.403 501.729 325.949 496.89C328.497 489.557 337.783 488.606 343.928 485.431C359.885 477.186 366.393 463.763 357.987 447.27Z"/><defs><linearGradient id="gradient_6" gradientUnits="userSpaceOnUse" x1="408.94543" y1="408.45984" x2="511.87958" y2="481.6243"><stop offset="0" stop-color="#7FA1AE"/><stop offset="1" stop-color="#BCCDD2"/></linearGradient></defs><path fill="url(#gradient_6)" d="M525.524 344.012C526.371 344.332 527.458 344.707 528.252 345.086C526.778 357.565 520.664 366.679 510.608 374.202C513.13 374.305 515.875 373.225 518.133 373.338C525.035 373.683 534.712 374.896 539.996 379.825C542.413 382.491 547.286 393.947 548.468 397.409C556.46 406.495 564.111 415.909 572.235 424.86C576.624 429.696 581.699 434.099 586.623 438.388C575.216 437.541 562.207 435.383 551.542 431.012C534.307 424.141 521.268 414.882 505.489 405.414C500.892 402.656 495.997 400.175 491.253 397.662C495.346 404.633 500.887 416.485 502.864 424.288C506.702 436.509 509.061 448.459 512.646 460.192C515.787 470.552 520.039 480.542 525.326 489.989C510.422 484.731 494.251 474.725 481.48 465.491C480.592 464.848 476.019 461.375 475.511 460.674C472.822 459.104 464.892 451.888 461.681 449.443C451.344 441.733 440.333 434.971 428.782 429.238C433.921 437.922 435.462 450.344 435.668 460.305C439.307 460.997 445.047 464.852 447.811 467.377C459.64 478.182 463.551 495.731 461.195 511.143C460.986 512.508 460.218 515.073 458.801 515.906C450.987 518.941 440.126 515.339 435.002 508.799C434.785 508.522 433.923 508.824 433.714 508.924C430.327 538.217 418.519 558.861 395.413 577.161C394.616 577.798 393.788 578.393 392.93 578.944C395.639 570.24 398.136 560.621 398.328 551.457C398.725 543.787 397.926 535.817 397.113 528.208C411.179 512.478 418.333 498.716 418.542 477.017C418.345 468.461 417.411 463.502 414.669 455.561C416.72 446.414 418.25 440.358 418.847 430.905C418.552 418.895 418.682 411.99 413.122 400.425C443.099 403.194 475.256 418.104 487.792 447.115C488.554 448.88 489.32 451.14 490.462 452.616L490.462 452.638L490.927 452.121C492.001 446.033 489.708 434.823 487.935 428.701C480.292 402.313 460.359 381.451 436.658 368.392C462.295 370.657 494.694 365.107 516.827 351.418C519.933 349.497 523.38 347.015 525.524 344.012Z"/><path fill="#CCD8DB" d="M510.608 374.202C513.13 374.305 515.875 373.225 518.133 373.338C525.035 373.683 534.712 374.896 539.996 379.825C542.413 382.491 547.286 393.947 548.468 397.409C556.46 406.495 564.111 415.909 572.235 424.86C576.624 429.696 581.699 434.099 586.623 438.388C575.216 437.541 562.207 435.383 551.542 431.012C551.253 429.37 551.381 429.398 550.143 428.244L548.912 426.813C546.934 423.134 544.153 417.69 541.648 414.54C532.229 402.699 516.45 391.163 502.747 384.704C501.666 384.194 501.423 384.117 501.119 383.271L501.745 382.706C500.591 382.65 499.651 382.655 498.836 381.987C501.578 380.022 507.736 375.837 510.608 374.202Z"/><path fill="#4A6B7D" d="M510.608 374.202C513.13 374.305 515.875 373.225 518.133 373.338C525.035 373.683 534.712 374.896 539.996 379.825C542.413 382.491 547.286 393.947 548.468 397.409C547.26 396.744 544.945 394.716 543.851 393.755C532.412 383.704 516.799 378.651 501.745 382.706C500.591 382.65 499.651 382.655 498.836 381.987C501.578 380.022 507.736 375.837 510.608 374.202Z"/><path fill="#FEFEFD" d="M548.912 426.813C550.56 425.419 552.41 425.744 554.209 426.732L554.686 427.397C553.61 428.524 551.748 427.905 550.143 428.244L548.912 426.813Z"/><path fill="#3A5B6D" d="M435.668 460.305C439.307 460.997 445.047 464.852 447.811 467.377C459.64 478.182 463.551 495.731 461.195 511.143C460.986 512.508 460.218 515.073 458.801 515.906C450.987 518.941 440.126 515.339 435.002 508.799C434.785 508.522 433.923 508.824 433.714 508.924C433.667 506.798 434.232 500.967 434.358 498.527C434.744 496.628 434.679 492.469 434.862 490.317C435.717 480.249 435.775 470.4 435.668 460.305Z"/><path fill="#FEFEFD" d="M398.328 551.457C398.44 550.968 398.525 550.637 398.876 550.24C403.929 544.514 410.156 538.414 414.497 532.114C421.21 522.371 427.061 510.66 430.857 499.461C432.235 495.397 433.149 490.925 434.284 486.769C434.598 490.284 434.192 494.723 434.358 498.527C434.232 500.967 433.667 506.798 433.714 508.924C430.327 538.217 418.519 558.861 395.413 577.161C394.616 577.798 393.788 578.393 392.93 578.944C395.639 570.24 398.136 560.621 398.328 551.457Z"/><path fill="#3A5B6D" d="M419.264 422.349C426.544 429.986 428.002 435.072 427.687 446.132C427.438 453.051 425.874 459.859 423.081 466.193C421.336 470.087 418.811 472.838 418.542 477.017C418.345 468.461 417.411 463.502 414.669 455.561C416.72 446.414 418.25 440.358 418.847 430.905C419.312 428.501 419.233 424.887 419.264 422.349Z"/><path fill="#CCD8DB" d="M475.511 460.674L475.565 460.237C476.345 460.338 480.745 464.149 481.871 464.925C486.077 467.827 491.545 472.13 495.95 474.405L496.152 472.997C498.329 470.201 503.065 474.353 504.627 470.811C505.894 470.187 513.13 471.982 514.979 472.444C515.156 472.079 515.703 470.954 515.703 470.954C509.992 456.523 507.563 441.149 502.826 426.415C502.396 425.077 502.737 424.593 502.864 424.288C506.702 436.509 509.061 448.459 512.646 460.192C515.787 470.552 520.039 480.542 525.326 489.989C510.422 484.731 494.251 474.725 481.48 465.491C480.592 464.848 476.019 461.375 475.511 460.674Z"/><path fill="#001A2B" d="M456.212 282.489C459.58 282.452 472.329 283.925 474.962 285.327C473.224 286.777 470.954 289.277 469.039 290.911C454.509 303.313 439.166 305.482 420.994 304.429C420.519 319.127 413.036 329.208 399.224 334.437C395.807 335.731 391.92 336.469 388.854 338.462C386.526 339.974 385.493 343.023 384.352 345.417C378.057 360.214 377.083 376.991 375.219 392.793C374.683 397.334 374.415 401.942 373.58 406.385L373.466 406.975C363.671 389.355 358.562 374.285 357.596 353.963C356.657 334.228 358.651 312.009 372.287 296.472C381.805 285.628 394.326 282.041 408.339 283.295C415.388 283.926 422.459 285.339 429.611 285.281C438.672 285.209 447.1 282.972 456.212 282.489Z"/><path fill="#91DAEB" d="M389.569 301.898C395.204 301.234 400.309 305.269 400.965 310.905C401.621 316.542 397.579 321.641 391.942 322.289C386.316 322.935 381.23 318.903 380.576 313.278C379.921 307.653 383.945 302.561 389.569 301.898Z"/><defs><linearGradient id="gradient_7" gradientUnits="userSpaceOnUse" x1="363.45844" y1="477.14191" x2="395.99539" y2="482.67673"><stop offset="0" stop-color="#91AAB4"/><stop offset="1" stop-color="#C3D5D9"/></linearGradient></defs><path fill="url(#gradient_7)" d="M393.391 439.58C399.022 461.127 400.777 489.471 386.755 508.072C385.687 509.577 384.851 510.657 383.674 512.072C382.527 513.293 381.336 514.631 380.091 515.737L375.152 519.368C372.305 521.346 360.22 528.331 357.127 529.235L356.762 528.669C358.187 528.284 364.49 525.589 364.795 524.324C362.548 520.348 352.347 513.177 348.329 510.277C347.58 509.736 344.516 509.657 343.506 509.615C345.355 509.306 347.459 509.175 349.514 508.831C353.011 508.168 356.018 507.088 359.325 505.868C367.047 501.207 368.596 502.214 375.758 494.673C388.71 481.034 393.058 463.596 393.136 445.222C393.145 443.26 393.426 441.592 393.391 439.58Z"/><defs><linearGradient id="gradient_8" gradientUnits="userSpaceOnUse" x1="359.02023" y1="518.66016" x2="364.51059" y2="511.22305"><stop offset="0" stop-color="#254253"/><stop offset="1" stop-color="#476978"/></linearGradient></defs><path fill="url(#gradient_8)" d="M349.514 508.831C356.165 510.061 363.357 516.878 371.342 514.85C372.554 516.049 374.779 519.048 375.152 519.368C372.305 521.346 360.22 528.331 357.127 529.235L356.762 528.669C358.187 528.284 364.49 525.589 364.795 524.324C362.548 520.348 352.347 513.177 348.329 510.277C347.58 509.736 344.516 509.657 343.506 509.615C345.355 509.306 347.459 509.175 349.514 508.831Z"/><path fill="#7D9AA8" d="M349.514 508.831C353.011 508.168 356.018 507.088 359.325 505.868L359.354 506.404L358.718 506.885L360.976 511.582C362.799 512.76 365.191 514.042 367.416 513.954L367.905 513.673C367.23 513.116 367.17 513.078 366.393 512.676C366.647 512.575 372.857 514.072 373.446 514.243L371.342 514.85C363.357 516.878 356.165 510.061 349.514 508.831Z"/><path fill="#4A6B7D" d="M374.552 513.834C375.989 514.13 378.864 514.962 380.091 515.737L375.152 519.368C374.779 519.048 372.554 516.049 371.342 514.85L373.446 514.243L374.552 513.834Z"/><path fill="#7D9AA8" d="M379.51 511.7C381.215 512.242 381.874 512.285 383.674 512.072C382.527 513.293 381.336 514.631 380.091 515.737C378.864 514.962 375.989 514.13 374.552 513.834C376.213 513.142 377.866 512.43 379.51 511.7Z"/><path fill="#94B0BB" d="M379.51 511.7C381.912 510.565 384.428 508.064 386.755 508.072C385.687 509.577 384.851 510.657 383.674 512.072C381.874 512.285 381.215 512.242 379.51 511.7Z"/><path fill="#FEFEFD" d="M488.99 39.5959C499.925 44.0844 508.036 52.7117 512.069 63.7966C527.915 107.347 535.376 169.936 505.475 209.069C503.022 206.914 501.116 205.478 498.508 203.565C491.939 198.965 485.868 194.921 479.134 190.531C485.343 181.544 489.448 173.305 493.253 163.096C481.824 163.96 473.856 163.516 462.395 162.986C464.059 161.693 465.649 160.306 467.157 158.833C480.358 145.737 485.582 130.156 485.619 111.982C485.487 107.871 485.067 103.331 484.61 99.2387L482.978 98.332C476.77 116.803 466.951 130.72 448.989 139.56L448.459 139.816C440.224 143.672 431.081 145.971 422.12 147.244C423.306 142.735 425.118 137.567 426.816 133.216C438.959 102.109 458.148 73.9753 479.958 48.8625C481.663 46.8997 483.945 44.0447 486.425 43.2328L488.99 39.5959Z"/><defs><linearGradient id="gradient_9" gradientUnits="userSpaceOnUse" x1="418.50226" y1="141.83025" x2="495.97842" y2="60.289448"><stop offset="0" stop-color="#4A6B7B"/><stop offset="1" stop-color="#6A8996"/></linearGradient></defs><path fill="url(#gradient_9)" d="M422.12 147.244C423.306 142.735 425.118 137.567 426.816 133.216C438.959 102.109 458.148 73.9753 479.958 48.8625C481.663 46.8997 483.945 44.0447 486.425 43.2328L471.692 77.63C467.797 86.6844 446.445 134.096 448.459 139.816C440.224 143.672 431.081 145.971 422.12 147.244Z"/><path fill="#CCD8DB" d="M485.619 111.982C486.336 113.164 485.804 117.369 486.072 118.942C486.398 120.857 487.738 122.751 488.058 124.572C490.115 136.285 489.348 146.786 485.912 158.185C492.137 155.513 493.527 153.115 500.512 151.102C506.659 163.732 506.735 179.234 502.546 192.603C501.505 195.926 498.94 200.308 498.508 203.565C491.939 198.965 485.868 194.921 479.134 190.531C485.343 181.544 489.448 173.305 493.253 163.096C481.824 163.96 473.856 163.516 462.395 162.986C464.059 161.693 465.649 160.306 467.157 158.833C480.358 145.737 485.582 130.156 485.619 111.982Z"/><path fill="#0F313E" d="M484.187 94.0315C484.355 95.7649 484.496 97.5008 484.61 99.2387L482.978 98.332L484.187 94.0315Z"/><path fill="#FEFEFD" d="M143.228 39.3684L144.936 41.6183C147.192 42.4948 151.24 47.6154 153.097 49.707C172.532 71.5945 190.208 98.1207 202.293 124.855C205.05 130.953 209.008 141.346 209.951 147.96C205.213 146.764 187.087 141.745 183.236 139.187C182.373 138.803 181.523 138.392 180.686 137.953C168.666 131.607 158.595 119.862 153.092 107.542C151.152 103.199 149.892 98.9297 148.496 94.3965C147.485 100.741 146.972 109.417 146.944 115.807C148.544 135.181 154.058 149.614 169.114 162.894C158.214 164.167 150.199 163.848 139.453 163.049C142.268 171.142 148.445 184.799 153.962 191.342C146.417 195.807 142.19 198.981 135.297 203.411C132.957 205.177 130.541 207.213 128.252 209.071C123.219 203.062 116.897 192.277 114.214 184.526C102.091 149.5 107.153 96.5725 121.419 62.7762C126.031 51.8498 132.304 43.6219 143.228 39.3684Z"/><defs><linearGradient id="gradient_10" gradientUnits="userSpaceOnUse" x1="200.36322" y1="150.31136" x2="156.53947" y2="40.822983"><stop offset="0" stop-color="#4E6E7D"/><stop offset="1" stop-color="#71909E"/></linearGradient></defs><path fill="url(#gradient_10)" d="M144.936 41.6183C147.192 42.4948 151.24 47.6154 153.097 49.707C172.532 71.5945 190.208 98.1207 202.293 124.855C205.05 130.953 209.008 141.346 209.951 147.96C205.213 146.764 187.087 141.745 183.236 139.187C186.341 132.407 150.457 53.3689 144.936 41.6183Z"/><path fill="#CCD8DB" d="M146.944 115.807C148.544 135.181 154.058 149.614 169.114 162.894C158.214 164.167 150.199 163.848 139.453 163.049C142.268 171.142 148.445 184.799 153.962 191.342C146.417 195.807 142.19 198.981 135.297 203.411C134.721 201.653 133.375 199.111 132.513 197.34C126.353 184.685 124.513 163.94 132.471 151.556C136.34 153.293 142.373 157.227 145.379 158.189C145.034 154.485 144.294 150.807 143.918 146.817C143.016 137.238 143.855 127.639 146.36 118.348C146.652 117.264 146.716 117.416 146.904 116.106L146.944 115.807Z"/><path fill="#94B0BB" d="M380.584 542.696C379.786 547.765 378.885 554.525 376.74 559.133L375.252 563.424C366.897 587.081 351.553 608.509 332.38 624.551C327.785 628.396 321.737 633.353 316.37 635.925C310.878 632.935 304.572 627.832 299.813 623.689C280.352 606.744 268.374 589.511 258.823 565.698C259.138 564.363 259.012 564.799 260.297 563.727C259.989 563.219 259.418 561.085 259.079 560.201C258.269 559.259 257.902 558.844 256.978 558.029L256.277 558.147C254.782 554.94 253.654 547.076 252.926 543.388C281.586 568.267 328.516 572.799 362.067 555.545C368.246 552.367 375.847 547.645 380.584 542.696Z"/><path fill="#FEFEFD" d="M373.898 562.388C374.554 562.811 374.774 562.863 375.252 563.424C366.897 587.081 351.553 608.509 332.38 624.551C327.785 628.396 321.737 633.353 316.37 635.925C310.878 632.935 304.572 627.832 299.813 623.689C280.352 606.744 268.374 589.511 258.823 565.698C259.138 564.363 259.012 564.799 260.297 563.727C271.277 580.414 301.873 594.402 316.282 610.733C329.516 596.041 352.513 585.553 366.832 571.055C369.646 568.205 371.538 565.57 373.898 562.388Z"/><path fill="#4A6B7D" d="M380.584 542.696C379.786 547.765 378.885 554.525 376.74 559.133L375.252 563.424C374.774 562.863 374.554 562.811 373.898 562.388L373.904 560.794C369.952 563.293 365.976 565.641 361.584 567.269C346.529 572.851 331.056 576.64 316.795 584.238C313.595 583.419 305.72 579.519 301.846 577.912C288 572.168 271.319 568.706 259.079 560.201C258.269 559.259 257.902 558.844 256.978 558.029L256.277 558.147C254.782 554.94 253.654 547.076 252.926 543.388C281.586 568.267 328.516 572.799 362.067 555.545C368.246 552.367 375.847 547.645 380.584 542.696Z"/><path fill="#CCD8DB" d="M373.904 560.794C375.021 559.86 375.371 559.381 376.74 559.133L375.252 563.424C374.774 562.863 374.554 562.811 373.898 562.388L373.904 560.794Z"/><path fill="#FEFEFD" d="M275.204 528.731C290.284 528.099 305.189 525.405 320.322 525.718C330.007 525.919 339.571 527.226 349.195 528.178C351.487 528.405 354.522 528.933 356.762 528.669L357.127 529.235C333.781 547.523 298.304 547.3 275.204 528.731Z"/><path fill="#CCD8DB" d="M256.277 558.147L256.978 558.029C257.902 558.844 258.269 559.259 259.079 560.201C259.418 561.085 259.989 563.219 260.297 563.727C259.012 564.799 259.138 564.363 258.823 565.698C257.848 563.425 257.029 560.544 256.277 558.147Z"/></svg>